<svg xmlns="http://www.w3.org/2000/svg" width="666.667" height="666.667" preserveAspectRatio="xMidYMid meet" version="1.0" viewBox="0 0 500 500"><metadata>Created by potrace 1.11, written by Peter Selinger 2001-2013</metadata><g fill="#000" stroke="none"><path d="M2355 4869 c-491 -52 -961 -270 -1325 -616 -350 -333 -597 -773 -695 -1243 -51 -243 -57 -266 -97 -349 -25 -52 -58 -101 -87 -130 l-46 -47 51 -50 c79 -76 116 -164 158 -374 58 -287 112 -453 223 -675 435 -877 1356 -1390 2297 -1280 755 88 1415 547 1775 1235 130 249 212 502 258 800 13 85 18 175 18 345 0 170 -5 260 -18 345 -46 298 -128 551 -258 800 -405 773 -1195 1257 -2039 1249 -74 -1 -171 -5 -215 -10z m349 -245 c30 -11 16 -40 -72 -150 -107 -134 -233 -321 -301 -447 l-51 -94 -98 -6 c-327 -20 -624 -158 -868 -401 -305 -306 -455 -714 -423 -1152 27 -364 169 -675 423 -930 244 -243 541 -381 868 -401 l98 -6 51 -94 c68 -126 194 -313 301 -447 48 -60 88 -118 88 -128 0 -27 -37 -32 -204 -25 -539 22 -1005 231 -1387 623 -393 404 -609 943 -609 1519 0 885 520 1674 1318 2000 131 53 338 108 467 124 50 6 101 13 115 15 44 6 268 6 284 0z m517 -100 c301 -100 616 -303 839 -542 301 -320 484 -696 562 -1152 31 -179 31 -511 0 -690 -78 -456 -261 -832 -562 -1152 -241 -257 -592 -475 -908 -563 -93 -26 -128 -10 -233 108 -104 118 -217 267 -291 384 -84 134 -82 141 55 185 356 113 659 375 827 713 115 231 155 405 155 670 0 265 -40 439 -155 670 -168 338 -471 600 -827 713 -136 44 -138 51 -59 180 123 197 344 463 411 493 54 25 61 24 186 -17z m-1088 -875 c7 -12 -3 -57 -40 -170 -28 -85 -61 -198 -73 -252 -25 -109 -53 -150 -112 -162 -18 -4 -66 -23 -107 -42 -163 -77 -285 -248 -318 -442 -14 -85 -14 -103 0 -189 32 -196 154 -367 318 -445 41 -19 89 -38 107 -42 59 -12 87 -53 112 -162 12 -54 45 -167 73 -252 57 -177 56 -188 -14 -183 -62 4 -240 66 -329 113 -349 188 -591 565 -618 959 -25 371 87 693 329 945 161 168 327 265 554 326 80 21 104 21 118 -2z m447 -10 c175 -48 360 -159 500 -299 466 -466 466 -1244 0 -1710 -144 -145 -333 -256 -513 -302 -96 -25 -127 -21 -159 22 -27 37 -94 224 -135 379 -33 127 -34 136 -20 166 10 21 36 44 74 65 124 70 235 215 279 365 24 81 24 239 0 320 -44 150 -155 295 -279 365 -34 19 -64 44 -73 62 -14 28 -14 37 0 97 57 228 134 440 173 471 32 25 60 25 153 -1z m-385 -841 c212 -110 255 -401 83 -564 -74 -72 -118 -89 -228 -89 -84 0 -101 3 -146 27 -200 105 -249 379 -97 548 75 83 142 111 258 106 63 -2 91 -8 130 -28z" transform="translate(0.000000,500.000000) scale(0.100000,-0.100000)"/></g></svg>